<?xml version="1.0" standalone="no"?>
<!DOCTYPE svg PUBLIC "-//W3C//DTD SVG 20010904//EN"
 "http://www.w3.org/TR/2001/REC-SVG-20010904/DTD/svg10.dtd">
<svg version="1.0" xmlns="http://www.w3.org/2000/svg"
 width="300.000000pt" height="299.000000pt" viewBox="0 0 300.000000 299.000000"
 preserveAspectRatio="xMidYMid meet">
<metadata>
Created by potrace 1.10, written by Peter Selinger 2001-2011
</metadata>
<g transform="translate(0.000000,299.000000) scale(0.100000,-0.100000)"
fill="#000000" stroke="none">
<path d="M396 2974 c-177 -43 -335 -200 -375 -374 -14 -62 -14 -2148 0 -2210
29 -128 136 -264 255 -327 122 -65 83 -63 1228 -63 1135 0 1091 -2 1216 58 74
36 187 150 223 225 57 119 57 102 57 1212 0 1110 0 1093 -57 1212 -36 75 -149
189 -223 225 -126 60 -80 58 -1221 57 -866 -1 -1054 -3 -1103 -15z m2229 -206
c68 -35 122 -92 154 -158 l26 -55 0 -1060 0 -1060 -26 -55 c-32 -66 -86 -123
-154 -158 -50 -27 -51 -27 -312 -30 l-263 -3 0 495 0 496 180 0 179 0 5 33 c3
17 10 68 15 112 6 44 15 112 21 152 5 39 10 83 10 97 l0 26 -205 0 -205 0 0
173 c0 149 3 178 20 215 31 67 79 84 263 90 l147 5 0 183 c0 114 -4 185 -10
189 -6 4 -106 7 -223 8 -181 2 -221 -1 -272 -16 -190 -59 -309 -188 -350 -383
-10 -47 -15 -132 -15 -266 l0 -198 -185 0 -185 0 0 -210 0 -210 185 0 185 0 0
-495 0 -495 -575 0 c-551 0 -576 1 -628 20 -101 38 -174 121 -202 227 -22 86
-22 2030 0 2116 27 105 101 188 199 227 50 19 79 19 1111 17 l1060 -2 50 -27z"/>
</g>
</svg>
