<?xml version="1.0" standalone="no"?>
<!DOCTYPE svg PUBLIC "-//W3C//DTD SVG 20010904//EN"
 "http://www.w3.org/TR/2001/REC-SVG-20010904/DTD/svg10.dtd">
<svg version="1.0" xmlns="http://www.w3.org/2000/svg"
 width="300.000000pt" height="302.000000pt" viewBox="0 0 300.000000 302.000000"
 preserveAspectRatio="xMidYMid meet">
<metadata>
Created by potrace 1.10, written by Peter Selinger 2001-2011
</metadata>
<g transform="translate(0.000000,302.000000) scale(0.100000,-0.100000)"
fill="#000000" stroke="none">
<path d="M544 3005 c-253 -55 -452 -248 -521 -505 -17 -60 -18 -140 -18 -995
0 -867 1 -934 18 -994 58 -205 184 -358 362 -442 152 -71 131 -70 1145 -67
1014 4 945 -1 1108 79 117 57 224 164 281 281 80 163 75 94 79 1103 3 1025 5
990 -75 1155 -40 80 -61 109 -137 186 -76 76 -106 98 -186 137 -161 79 -121
77 -1115 76 -694 0 -893 -3 -941 -14z m1849 -180 c177 -37 336 -182 399 -363
l23 -67 0 -895 0 -895 -22 -70 c-23 -73 -66 -149 -112 -199 -41 -45 -138 -104
-210 -129 -66 -22 -67 -22 -931 -25 -571 -2 -888 1 -935 8 -151 22 -297 128
-361 260 -61 125 -59 94 -59 1065 0 989 -3 934 67 1068 38 70 137 165 210 201
111 54 114 54 1023 55 693 1 852 -2 908 -14z"/>
<path d="M2265 2486 c-91 -41 -123 -165 -63 -241 24 -31 90 -64 127 -65 14 0
44 9 67 21 107 51 120 200 24 269 -39 28 -113 36 -155 16z"/>
<path d="M1322 2160 c-119 -32 -206 -84 -303 -180 -70 -69 -94 -102 -127 -171
-165 -340 -31 -741 301 -904 195 -95 390 -98 582 -10 146 67 253 173 325 320
126 260 75 560 -130 765 -85 85 -155 130 -262 167 -101 36 -279 42 -386 13z
m270 -171 c199 -41 360 -214 388 -414 37 -271 -151 -517 -424 -554 -316 -43
-597 241 -548 556 44 279 312 469 584 412z"/>
</g>
</svg>
